<mxfile host="65bd71144e">
    <diagram name="Page-1" id="5f0bae14-7c28-e335-631c-24af17079c00">
        <mxGraphModel dx="1333" dy="781" grid="1" gridSize="10" guides="1" tooltips="1" connect="1" arrows="1" fold="1" page="1" pageScale="1" pageWidth="1100" pageHeight="850" background="none" math="0" shadow="0">
            <root>
                <mxCell id="0"/>
                <mxCell id="1" parent="0"/>
                <mxCell id="MxHcLkCPxdAbKTUCakO2-9" value="" style="shape=component;align=left;spacingLeft=36;rounded=0;shadow=0;comic=0;labelBackgroundColor=none;strokeWidth=1;fontFamily=Verdana;fontSize=12;html=1;" parent="1" vertex="1">
                    <mxGeometry x="827" y="436" width="290" height="78" as="geometry"/>
                </mxCell>
                <mxCell id="MxHcLkCPxdAbKTUCakO2-4" value="" style="edgeStyle=orthogonalEdgeStyle;rounded=0;orthogonalLoop=1;jettySize=auto;html=1;exitX=1;exitY=0.25;exitDx=0;exitDy=0;entryX=0.5;entryY=1;entryDx=0;entryDy=0;endArrow=none;endFill=0;" parent="1" source="39150e848f15840c-5" target="MxHcLkCPxdAbKTUCakO2-3" edge="1">
                    <mxGeometry relative="1" as="geometry"/>
                </mxCell>
                <mxCell id="MxHcLkCPxdAbKTUCakO2-22" value="S3" style="edgeLabel;html=1;align=center;verticalAlign=middle;resizable=0;points=[];" parent="MxHcLkCPxdAbKTUCakO2-4" vertex="1" connectable="0">
                    <mxGeometry x="0.012" relative="1" as="geometry">
                        <mxPoint as="offset"/>
                    </mxGeometry>
                </mxCell>
                <mxCell id="39150e848f15840c-5" value="MinIO" style="shape=component;align=left;spacingLeft=36;rounded=0;shadow=0;comic=0;labelBackgroundColor=none;strokeWidth=1;fontFamily=Verdana;fontSize=12;html=1;" parent="1" vertex="1">
                    <mxGeometry x="343" y="562" width="120" height="60" as="geometry"/>
                </mxCell>
                <mxCell id="MxHcLkCPxdAbKTUCakO2-1" value="" style="edgeStyle=orthogonalEdgeStyle;rounded=0;orthogonalLoop=1;jettySize=auto;html=1;exitX=0.5;exitY=1;exitDx=0;exitDy=0;" parent="1" source="39150e848f15840c-10" target="39150e848f15840c-5" edge="1">
                    <mxGeometry relative="1" as="geometry"/>
                </mxCell>
                <mxCell id="MxHcLkCPxdAbKTUCakO2-2" value="S3" style="edgeLabel;html=1;align=center;verticalAlign=middle;resizable=0;points=[];" parent="MxHcLkCPxdAbKTUCakO2-1" vertex="1" connectable="0">
                    <mxGeometry x="0.0222" y="-2" relative="1" as="geometry">
                        <mxPoint as="offset"/>
                    </mxGeometry>
                </mxCell>
                <mxCell id="39150e848f15840c-10" value="AnDe" style="shape=component;align=left;spacingLeft=36;rounded=0;shadow=0;comic=0;labelBackgroundColor=none;strokeWidth=1;fontFamily=Verdana;fontSize=12;html=1;" parent="1" vertex="1">
                    <mxGeometry x="343" y="461" width="120" height="60" as="geometry"/>
                </mxCell>
                <mxCell id="MxHcLkCPxdAbKTUCakO2-6" value="" style="edgeStyle=orthogonalEdgeStyle;rounded=0;orthogonalLoop=1;jettySize=auto;html=1;" parent="1" source="MxHcLkCPxdAbKTUCakO2-3" target="MxHcLkCPxdAbKTUCakO2-5" edge="1">
                    <mxGeometry relative="1" as="geometry"/>
                </mxCell>
                <mxCell id="MxHcLkCPxdAbKTUCakO2-3" value="AnDe&lt;br&gt;Exporter" style="shape=component;align=left;spacingLeft=36;rounded=0;shadow=0;comic=0;labelBackgroundColor=none;strokeWidth=1;fontFamily=Verdana;fontSize=12;html=1;" parent="1" vertex="1">
                    <mxGeometry x="550" y="460" width="120" height="60" as="geometry"/>
                </mxCell>
                <mxCell id="MxHcLkCPxdAbKTUCakO2-8" value="" style="edgeStyle=orthogonalEdgeStyle;rounded=0;orthogonalLoop=1;jettySize=auto;html=1;endArrow=none;endFill=0;entryX=0;entryY=0.7;entryDx=0;entryDy=0;" parent="1" source="MxHcLkCPxdAbKTUCakO2-5" target="MxHcLkCPxdAbKTUCakO2-9" edge="1">
                    <mxGeometry relative="1" as="geometry"/>
                </mxCell>
                <mxCell id="MxHcLkCPxdAbKTUCakO2-21" value="" style="edgeStyle=orthogonalEdgeStyle;rounded=0;orthogonalLoop=1;jettySize=auto;html=1;endArrow=none;endFill=0;" parent="1" source="MxHcLkCPxdAbKTUCakO2-5" target="MxHcLkCPxdAbKTUCakO2-20" edge="1">
                    <mxGeometry relative="1" as="geometry"/>
                </mxCell>
                <mxCell id="MxHcLkCPxdAbKTUCakO2-5" value="Redis" style="shape=cylinder3;whiteSpace=wrap;html=1;boundedLbl=1;backgroundOutline=1;size=15;rotation=270;textDirection=vertical-lr;" parent="1" vertex="1">
                    <mxGeometry x="707" y="450" width="60" height="80" as="geometry"/>
                </mxCell>
                <mxCell id="MxHcLkCPxdAbKTUCakO2-7" value="AnDe&lt;br&gt;Listener" style="shape=component;align=left;spacingLeft=36;rounded=0;shadow=0;comic=0;labelBackgroundColor=none;strokeWidth=1;fontFamily=Verdana;fontSize=12;html=1;" parent="1" vertex="1">
                    <mxGeometry x="867" y="466" width="85" height="40" as="geometry"/>
                </mxCell>
                <mxCell id="MxHcLkCPxdAbKTUCakO2-12" value="" style="edgeStyle=orthogonalEdgeStyle;rounded=0;orthogonalLoop=1;jettySize=auto;html=1;endArrow=none;endFill=0;" parent="1" source="MxHcLkCPxdAbKTUCakO2-11" target="MxHcLkCPxdAbKTUCakO2-9" edge="1">
                    <mxGeometry relative="1" as="geometry"/>
                </mxCell>
                <mxCell id="MxHcLkCPxdAbKTUCakO2-11" value="PostgreSQL" style="shape=cylinder3;whiteSpace=wrap;html=1;boundedLbl=1;backgroundOutline=1;size=15;" parent="1" vertex="1">
                    <mxGeometry x="922" y="536" width="100" height="80" as="geometry"/>
                </mxCell>
                <mxCell id="MxHcLkCPxdAbKTUCakO2-15" value="" style="endArrow=none;html=1;rounded=0;edgeStyle=orthogonalEdgeStyle;exitX=1;exitY=0.75;exitDx=0;exitDy=0;entryX=0.25;entryY=1;entryDx=0;entryDy=0;" parent="1" source="39150e848f15840c-5" target="MxHcLkCPxdAbKTUCakO2-9" edge="1">
                    <mxGeometry width="50" height="50" relative="1" as="geometry">
                        <mxPoint x="630" y="750" as="sourcePoint"/>
                        <mxPoint x="680" y="700" as="targetPoint"/>
                        <Array as="points">
                            <mxPoint x="900" y="607"/>
                            <mxPoint x="900" y="514"/>
                        </Array>
                    </mxGeometry>
                </mxCell>
                <mxCell id="MxHcLkCPxdAbKTUCakO2-19" value="S3" style="edgeLabel;html=1;align=center;verticalAlign=middle;resizable=0;points=[];" parent="MxHcLkCPxdAbKTUCakO2-15" vertex="1" connectable="0">
                    <mxGeometry x="-0.1308" y="-1" relative="1" as="geometry">
                        <mxPoint as="offset"/>
                    </mxGeometry>
                </mxCell>
                <mxCell id="MxHcLkCPxdAbKTUCakO2-18" value="" style="edgeStyle=orthogonalEdgeStyle;rounded=0;orthogonalLoop=1;jettySize=auto;html=1;endArrow=none;endFill=0;" parent="1" source="MxHcLkCPxdAbKTUCakO2-17" target="39150e848f15840c-5" edge="1">
                    <mxGeometry relative="1" as="geometry"/>
                </mxCell>
                <mxCell id="MxHcLkCPxdAbKTUCakO2-17" value="Persistent&lt;br&gt;Volume&lt;br&gt;Claim" style="shape=cylinder3;whiteSpace=wrap;html=1;boundedLbl=1;backgroundOutline=1;size=15;" parent="1" vertex="1">
                    <mxGeometry x="353" y="662" width="100" height="80" as="geometry"/>
                </mxCell>
                <mxCell id="MxHcLkCPxdAbKTUCakO2-20" value="MetaData&lt;br&gt;S3 URL" style="shape=note2;boundedLbl=1;whiteSpace=wrap;html=1;size=25;verticalAlign=top;align=center;" parent="1" vertex="1">
                    <mxGeometry x="697" y="367" width="80" height="60" as="geometry"/>
                </mxCell>
                <mxCell id="MxHcLkCPxdAbKTUCakO2-23" value="Spring&lt;br&gt;Boot" style="shape=component;align=left;spacingLeft=36;rounded=0;shadow=0;comic=0;labelBackgroundColor=none;strokeWidth=1;fontFamily=Verdana;fontSize=12;html=1;" parent="1" vertex="1">
                    <mxGeometry x="992" y="466" width="85" height="40" as="geometry"/>
                </mxCell>
                <mxCell id="MxHcLkCPxdAbKTUCakO2-24" value="KI-Cockpit" style="text;html=1;align=center;verticalAlign=middle;whiteSpace=wrap;rounded=0;" parent="1" vertex="1">
                    <mxGeometry x="1057" y="436" width="60" height="30" as="geometry"/>
                </mxCell>
            </root>
        </mxGraphModel>
    </diagram>
</mxfile>